<?xml version="1.0" encoding="utf-8"?>
<!-- Generator: Adobe Illustrator 23.0.2, SVG Export Plug-In . SVG Version: 6.00 Build 0)  -->
<svg version="1.1" id="Capa_1" xmlns="http://www.w3.org/2000/svg" xmlns:xlink="http://www.w3.org/1999/xlink" x="0px" y="0px"
	 viewBox="0 0 204.7 70" style="enable-background:new 0 0 204.7 70;" xml:space="preserve">
<style type="text/css">
	.st0{fill:#562C53;}
	.st1{fill:#2C5896;}
</style>
<g>
	<path class="st0" d="M2.1,19.3c0-5.6,0-11.1,0-16.7c0-0.4,0-0.4,0.4-0.4c11,0,22,0,33,0c4,0,7.9,0.9,11.6,2.4
		c7.6,3.1,13.3,8.3,17.1,15.6c1.5,2.9,2.5,6,3.1,9.2c0.2,1.3,0.3,2.7,0.4,4c0.1,0.8,0.1,1.6,0.1,2.4c-0.1,3.8-0.8,7.4-2.1,11
		c-1.6,4.2-3.9,7.9-7,11.1c-4.5,4.7-10,7.8-16.3,9.2c-1.5,0.4-3.1,0.6-4.6,0.7c-1.4,0.1-2.8,0.2-4.2,0.1c-7.4-0.4-14-2.9-19.6-7.7
		C8.4,55.5,4.8,49.7,3.1,42.7c-0.4-1.5-0.7-3.1-0.8-4.6c-0.1-1.1-0.2-2.2-0.2-3.4C2.1,29.6,2.1,24.4,2.1,19.3z M18.5,35.2
		c0,1.5,0,3.1,0,4.6c0,4.7,0,9.4,0,14.1c0,0.8,0.5,1.6,1.3,1.9c0.8,0.3,1.6,0.2,2.2-0.4c0.5-0.5,0.6-1.1,0.6-1.7
		c0-12.2,0-24.4,0-36.6c0-0.3,0-0.5,0-0.8c-0.1-1.2-1.3-2-2.5-1.7c-1,0.2-1.6,1-1.6,2.1C18.5,22.8,18.5,29,18.5,35.2z M16.8,35.2
		c0-0.1,0-0.2,0-0.3c0-3.2,0-6.3,0-9.5c0-1.4-1.3-2.4-2.6-2c-0.9,0.3-1.5,1.1-1.5,2c0,6.4,0,12.8,0,19.2c0,0.2,0,0.3,0,0.5
		c0,1.4,1.5,2.4,2.8,1.9c0.8-0.3,1.4-1.1,1.4-2C16.8,41.7,16.8,38.4,16.8,35.2z M51.6,35.2c0-3.3,0-6.5,0-9.8c0-1.4-1.3-2.4-2.6-2
		c-0.9,0.3-1.5,1.1-1.5,2c0,6.6,0,13.1,0,19.7c0,0.2,0,0.3,0.1,0.5c0.2,1,1.3,1.8,2.3,1.6c1.1-0.2,1.8-1,1.8-2.1
		C51.6,41.7,51.6,38.4,51.6,35.2z M40,35.2c0-3.3,0-6.6,0-9.9c0-0.8-0.4-1.4-1.1-1.8c-0.7-0.4-1.5-0.3-2.1,0.1
		c-0.7,0.5-0.9,1.2-0.9,1.9c0,6.3,0,12.7,0,19c0,0.3,0,0.6,0,0.8c0.2,1.1,1.1,1.8,2.2,1.7c1.2-0.1,1.9-1,1.9-2.2
		C40,41.7,40,38.4,40,35.2z M28.4,35.2c0-3.3,0-6.6,0-9.9c0-0.1,0-0.3,0-0.4c-0.2-1.1-1.2-1.7-2.3-1.6c-1,0.1-1.8,1-1.8,2
		c0,6.6,0,13.2,0,19.7c0,0.1,0,0.2,0,0.4c0.2,1.1,1.2,1.8,2.1,1.7c1.1-0.1,1.9-0.9,1.9-2.1C28.4,41.7,28.4,38.5,28.4,35.2z
		 M53.3,35.2c0,2.2,0,4.5,0,6.7c0,1.5,1.5,2.5,2.9,1.9c0.9-0.4,1.3-1.1,1.3-2.1c0-4.2,0-8.4,0-12.6c0-0.2,0-0.5,0-0.7
		c-0.1-1.2-1.3-2-2.5-1.7c-1,0.2-1.6,1-1.6,2C53.3,30.8,53.3,33,53.3,35.2z M45.8,35.2c0-1.6,0-3.2,0-4.8c0-1.2-0.9-2.1-2-2.1
		c-1.1,0-2.1,0.9-2.1,2c0,3.3,0,6.5,0,9.8c0,1.4,1.3,2.3,2.6,1.9c0.9-0.2,1.5-1.1,1.5-2C45.8,38.4,45.8,36.8,45.8,35.2z M11,35.2
		c0-0.9,0-1.8,0-2.7c0-1.2-1-2.1-2.2-2c-1.1,0.1-1.9,1-1.9,2.1c0,1.8,0,3.5,0,5.3c0,0.2,0,0.4,0.1,0.6c0.3,1,1.2,1.6,2.3,1.5
		c1-0.1,1.7-1,1.8-2C11,37,11,36.1,11,35.2z M34.2,35.2c0-0.9,0-1.8,0-2.8c0-1.1-1-2-2.1-2c-1.1,0-2,0.9-2,2c0,1.8,0,3.7,0,5.5
		c0,1.1,0.9,2,2,2c1.1,0,2.1-0.9,2.1-2C34.2,37,34.2,36.1,34.2,35.2z M63.2,35.2c0-0.9,0-1.8,0-2.8c0-1.1-0.9-2-2-2
		c-1.1,0-2.1,0.9-2.1,2c0,1.8,0,3.7,0,5.5c0,0.2,0,0.4,0.1,0.5c0.3,1,1.2,1.6,2.3,1.4c1-0.1,1.7-1,1.7-2
		C63.2,37,63.2,36.1,63.2,35.2z"/>
	<path class="st0" d="M142.3,67.9c-19.6,0-39.2,0-58.9,0c-0.2,0-0.4,0-0.6-0.1c-0.6-0.2-0.9-0.7-0.8-1.4c0.1-0.5,0.6-0.9,1.2-0.9
		c0.1,0,0.2,0,0.2,0c39.3,0,78.6,0,117.9,0c0.2,0,0.4,0,0.5,0.1c0.6,0.2,0.9,0.7,0.8,1.4c-0.1,0.5-0.5,0.9-1.1,0.9
		c-0.1,0-0.3,0-0.4,0C181.4,67.9,161.9,67.9,142.3,67.9z"/>
	<path class="st1" d="M108.7,55.1c-0.8,0-1.5,0-2.3,0c0-2.6,0-5.3,0-7.9c0,0-0.1,0-0.1,0c-1.6,2.6-3.2,5.1-4.8,7.7
		c-1.6-2.6-3.2-5.2-4.8-7.7c0,0-0.1,0-0.1,0c0,0.1,0,0.2,0,0.3c0,2.4,0,4.8,0,7.2c0,0.3-0.1,0.4-0.4,0.4c-0.6,0-1.2,0-1.9,0
		c0-4.9,0-9.9,0-14.8c0,0,0,0,0.1,0c0.1,0.1,0.2,0.2,0.2,0.2c1.8,2.7,3.5,5.3,5.3,8c0.5,0.8,1,1.5,1.5,2.3c0.1-0.1,0.1-0.2,0.2-0.3
		c2.2-3.4,4.4-6.7,6.6-10.1c0.1-0.1,0.1-0.1,0.2-0.2c0,0,0,0,0.1,0C108.7,45.2,108.7,50.1,108.7,55.1z"/>
	<path class="st1" d="M195.6,55.3c-4.1,0-7.5-3.4-7.5-7.5c0-4.1,3.4-7.5,7.5-7.5c4.1,0,7.5,3.3,7.5,7.3
		C203.2,51.5,200.1,55.2,195.6,55.3z M190.4,47.8c0,2.9,2.3,5.2,5.2,5.2c2.8,0,5.2-2.3,5.2-5.2c0-2.9-2.3-5.2-5.2-5.2
		C192.7,42.6,190.4,44.9,190.4,47.8z"/>
	<path class="st1" d="M127.5,24.9c1.5,2,2.9,4,4.4,6c-0.1,0-0.2,0-0.3,0c-0.8,0-1.5,0-2.3,0c-0.2,0-0.3-0.1-0.5-0.2
		c-1.2-1.8-2.5-3.6-3.7-5.3c-0.1-0.2-0.3-0.3-0.5-0.3c-0.5,0-1,0-1.5,0c0,2,0,3.9,0,5.8c-0.8,0-1.6,0-2.3,0c0-5,0-10,0-15
		c0.1,0,0.1,0,0.2,0c1.6,0,3.2,0,4.8,0c2.3,0,4.3,1.7,4.7,4c0.4,2.1-0.7,4.2-2.7,5C127.6,24.9,127.6,24.9,127.5,24.9z M123,18.3
		c0,1.6,0,3.1,0,4.7c0,0.1,0.1,0.2,0.2,0.2c0.9,0,1.7,0,2.6,0c1.2-0.1,2.2-1.2,2.2-2.4c0-1.2-0.9-2.3-2.1-2.4
		C125,18.2,124,18.3,123,18.3z"/>
	<path class="st1" d="M178,49.3c1.4,1.9,2.8,3.8,4.2,5.8c-0.8,0-1.5,0-2.2,0c-0.5,0-0.7-0.1-1-0.5c-1.1-1.7-2.3-3.3-3.4-4.9
		c-0.1-0.2-0.2-0.2-0.4-0.2c-0.5,0-1,0-1.5,0c0,1.9,0,3.7,0,5.6c-0.8,0-1.5,0-2.3,0c0-4.8,0-9.6,0-14.5c0.1,0,0.1,0,0.2,0
		c1.5,0,3,0,4.5,0c2.2,0.1,4.1,1.6,4.6,3.7c0.5,2.1-0.6,4.1-2.6,4.9C178.1,49.2,178.1,49.2,178,49.3z M173.7,47.5c0.8,0,1.7,0,2.5,0
		c1.3-0.1,2.2-1.1,2.3-2.3c0-1.2-0.8-2.2-2.1-2.4c-0.7-0.1-1.3,0-2,0c-0.2,0-0.4,0-0.6,0C173.7,44.4,173.7,46,173.7,47.5z"/>
	<path class="st1" d="M123.3,40.6c1.7,0,3.5-0.1,5.2,0c2.3,0.2,4.1,2.2,4.2,4.4c0.1,1.7-1,3.4-2.6,4.1c-0.1,0-0.2,0.1-0.3,0.1
		c1.4,1.9,2.8,3.8,4.2,5.8c-0.1,0-0.2,0-0.3,0c-0.7,0-1.5,0-2.2,0c-0.2,0-0.4-0.1-0.5-0.2c-1.2-1.7-2.4-3.4-3.5-5.1
		c-0.2-0.2-0.3-0.3-0.6-0.3c-0.5,0-0.9,0-1.4,0c0,1.9,0,3.7,0,5.6c-0.8,0-1.5,0-2.3,0C123.3,50.2,123.3,45.4,123.3,40.6z
		 M125.6,47.6c1-0.1,2,0.1,3-0.1c1.1-0.3,1.9-1.4,1.8-2.4c-0.1-1.2-1.1-2.2-2.3-2.2c-0.8,0-1.5,0-2.3,0c-0.1,0-0.1,0-0.2,0
		C125.6,44.4,125.6,46,125.6,47.6z"/>
	<path class="st1" d="M109.3,30.9c0-5,0-10,0-15c3,0,5.9,0,8.9,0c0,0.8,0,1.5,0,2.3c-2.2,0-4.4,0-6.6,0c0,1.3,0,2.5,0,3.8
		c1.9,0,3.8,0,5.7,0c0,0.8,0,1.5,0,2.2c0,0.1-0.2,0.1-0.3,0.1c-0.9,0-1.8,0-2.7,0c-0.8,0-1.6,0-2.3,0c-0.1,0-0.2,0-0.3,0
		c0,1.4,0,2.8,0,4.2c2.2,0,4.3,0,6.5,0c0,0.8,0,1.6,0,2.4C115.2,30.9,112.3,30.9,109.3,30.9z"/>
	<path class="st1" d="M95.1,15.9c0.8,0,1.6,0,2.4,0c0,0.1,0,0.2,0,0.3c0,3,0,6,0,9c0,1.3,0.5,2.4,1.6,3.1c1.9,1.2,4.4,0.1,4.9-2.2
		c0.1-0.3,0.1-0.7,0.1-1c0-3,0-5.9,0-8.9c0-0.1,0-0.2,0-0.4c0.8,0,1.6,0,2.4,0c0,0.1,0,0.2,0,0.3c0,3,0,5.9,0,8.9
		c0,1.6-0.4,3.1-1.5,4.3c-1.4,1.6-3.2,2.1-5.3,1.7c-2.1-0.4-3.5-1.7-4.2-3.7c-0.2-0.7-0.3-1.4-0.4-2.2c0-3,0-6,0-9.1
		C95.1,16.1,95.1,16,95.1,15.9z"/>
	<path class="st1" d="M153.3,28.6c0,0.8,0,1.6,0,2.4c-3,0-5.9,0-8.9,0c0-5,0-10,0-15c3,0,5.9,0,8.9,0c0,0.8,0,1.5,0,2.3
		c-2.2,0-4.4,0-6.6,0c0,1.3,0,2.6,0,3.8c1.9,0,3.8,0,5.6,0c0,0.8,0,1.5,0,2.4c-1.9,0-3.8,0-5.7,0c0,1.4,0,2.8,0,4.2
		C148.9,28.6,151.1,28.6,153.3,28.6z"/>
	<path class="st1" d="M82.7,28.3c0.6-0.4,1.2-0.9,1.8-1.3c0.2,0.3,0.4,0.5,0.6,0.7c1.2,1.2,3.3,1.5,4.8,0.6c0.8-0.4,1.1-1.1,0.9-1.8
		c-0.1-0.4-0.3-0.7-0.7-1c-0.6-0.6-1.4-0.9-2.1-1.2c-0.8-0.4-1.7-0.7-2.5-1.2c-0.5-0.3-1-0.6-1.3-1c-1.2-1.3-1.1-3.6,0.2-5
		c1.1-1.2,2.6-1.6,4.1-1.5c1.2,0.1,2.3,0.5,3.2,1.4c0.4,0.4,0.6,0.8,0.8,1.3c-0.6,0.4-1.1,0.8-1.7,1.2c-0.2-0.3-0.4-0.5-0.6-0.8
		c-1-1-2.8-1.1-3.9-0.2c-0.9,0.7-0.9,1.9,0.1,2.5c0.5,0.3,1.1,0.6,1.6,0.8c1.1,0.5,2.2,0.9,3.2,1.6c1,0.7,1.8,1.6,1.9,2.9
		c0.2,1.9-0.6,3.3-2.2,4.1c-2.4,1.2-4.7,1.1-6.9-0.5C83.4,29.6,83,29,82.7,28.3z"/>
	<path class="st1" d="M92.1,40.6c0,0.7,0,1.5,0,2.2c-2.1,0-4.2,0-6.3,0c0,1.3,0,2.5,0,3.7c1.8,0,3.6,0,5.5,0c0,0.3,0,0.6,0,0.9
		c0,0.3,0,0.7,0,1c0,0.3-0.1,0.3-0.3,0.3c-1.6,0-3.2,0-4.8,0c-0.1,0-0.3,0-0.4,0c0,1.3,0,2.7,0,4c2.1,0,4.2,0,6.3,0
		c0,0.8,0,1.5,0,2.3c-2.9,0-5.7,0-8.6,0c0-4.8,0-9.6,0-14.5C86.3,40.6,89.2,40.6,92.1,40.6z"/>
	<path class="st1" d="M144.2,40.6c0,0.7,0,1.4,0,2.2c-2.1,0-4.2,0-6.3,0c0,1.3,0,2.5,0,3.7c1.8,0,3.6,0,5.4,0c0,0.8,0,1.5,0,2.2
		c-1.8,0-3.6,0-5.4,0c0,1.4,0,2.7,0,4c2.1,0,4.2,0,6.3,0c0,0.8,0,1.5,0,2.3c-2.9,0-5.7,0-8.6,0c0-4.8,0-9.7,0-14.5
		C138.5,40.6,141.3,40.6,144.2,40.6z"/>
	<path class="st1" d="M111.5,40.6c1.9,0,3.7-0.1,5.6,0c2.2,0.1,4.1,2,4.4,4.2c0.2,1.8-0.8,3.7-2.5,4.6c-0.8,0.4-1.7,0.6-2.6,0.6
		c-0.8,0-1.7,0-2.5,0c0,1.7,0,3.3,0,5c-0.8,0-1.5,0-2.3,0C111.5,50.2,111.5,45.4,111.5,40.6z M113.8,47.8c0.1,0,0.2,0,0.3,0
		c0.8,0,1.5,0,2.3,0c0.5,0,1-0.1,1.5-0.4c1.3-0.7,1.7-2.3,0.8-3.5c-0.5-0.7-1.3-1.1-2.1-1.1c-0.9,0-1.8,0-2.6,0c0,0-0.1,0-0.1,0
		C113.8,44.5,113.8,46.1,113.8,47.8z"/>
	<path class="st1" d="M162.9,40.2c2.3,4.9,4.5,9.9,6.8,14.8c-0.1,0-0.1,0-0.2,0c-0.7,0-1.4,0-2.1,0c-0.2,0-0.2-0.1-0.3-0.2
		c-0.3-0.6-0.5-1.2-0.8-1.8c-0.1-0.2-0.2-0.2-0.3-0.2c-2.1,0-4.3,0-6.4,0c-0.2,0-0.3,0.1-0.3,0.2c-0.3,0.6-0.5,1.2-0.8,1.8
		c-0.1,0.2-0.2,0.2-0.4,0.2c-0.7,0-1.4,0-2.2,0c2.3-5,4.6-9.9,6.8-14.8C162.9,40.2,162.9,40.2,162.9,40.2z M160.3,50.9
		c1.7,0,3.4,0,5.1,0c-0.8-1.9-1.7-3.7-2.5-5.6C162,47.1,161.2,49,160.3,50.9z"/>
	<path class="st1" d="M153.7,44c-0.4-0.7-1-1.2-1.8-1.4c-1-0.2-1.9-0.1-2.7,0.6c-0.7,0.7-0.6,1.7,0.2,2.2c0.4,0.3,0.9,0.5,1.4,0.7
		c1,0.5,2.1,1,3.1,1.5c0.9,0.5,1.6,1.3,1.9,2.3c0.4,1.7-0.2,3.3-1.7,4.3c-2,1.3-5.1,1.2-7-0.2c-0.6-0.4-1.1-1-1.4-1.7
		c0.6-0.4,1.2-0.9,1.8-1.3c0.3,0.3,0.5,0.6,0.8,0.8c1.2,1,3.1,1.2,4.4,0.5c0.2-0.1,0.5-0.3,0.6-0.5c0.6-0.6,0.5-1.5-0.2-2.1
		c-0.5-0.4-1.1-0.8-1.7-1.1c-0.9-0.5-1.8-0.8-2.7-1.3c-0.8-0.4-1.4-0.9-1.8-1.6c-0.7-1.3-0.4-3.1,0.7-4.2c1.6-1.7,4.9-1.9,6.7-0.4
		c0.5,0.4,0.9,0.9,1.1,1.6C154.8,43.3,154.3,43.6,153.7,44z"/>
	<path class="st1" d="M136.1,18.2c-1.4,0-2.7,0-4,0c0-0.8,0-1.5,0-2.3c3.5,0,6.9,0,10.4,0c0,0.8,0,1.5,0,2.3c-1.3,0-2.7,0-4,0
		c0,4.2,0,8.5,0,12.7c-0.2,0-0.3,0-0.4,0c-0.6,0-1.1,0-1.7,0c-0.2,0-0.3-0.1-0.3-0.3c0-0.1,0-0.2,0-0.3c0-3.9,0-7.9,0-11.8
		C136.1,18.5,136.1,18.4,136.1,18.2z"/>
	<path class="st1" d="M186,40.6c0,4.8,0,9.7,0,14.5c-0.7,0-1.5,0-2.2,0c0-4.8,0-9.6,0-14.5C184.5,40.6,185.2,40.6,186,40.6z"/>
	<path class="st1" d="M162.5,30.9c0-3.2,0-6.5,0-9.8c0.4,0,0.8,0,1.1,0c1,0,2.1-0.1,3.1,0.2c2,0.5,3.3,2,3.5,4.1
		c0.1,1.1,0,2.1-0.5,3.1c-0.8,1.5-2.1,2.3-3.7,2.5c-1.1,0.1-2.3,0-3.4,0.1C162.6,30.9,162.6,30.9,162.5,30.9z M163.6,22.2
		c0,0.1,0,0.1,0,0.2c0,2.4,0,4.8,0,7.2c0,0.2,0.1,0.2,0.2,0.2c0.5,0,1.1,0,1.6,0c1.3-0.1,2.5-0.5,3.2-1.7c0.5-0.8,0.6-1.7,0.5-2.5
		c-0.1-1.6-1.1-2.8-2.6-3.2C165.5,22.1,164.6,22.2,163.6,22.2z"/>
	<path class="st1" d="M172.9,29.9c1.5,0,3.1,0,4.6,0c0,0.4,0,0.7,0,1.1c-1.9,0-3.8,0-5.7,0c0-3.3,0-6.5,0-9.8c1.9,0,3.8,0,5.7,0
		c0,0.3,0,0.7,0,1.1c-1.5,0-3.1,0-4.6,0c0,1,0,2.1,0,3.1c1.3,0,2.7,0,4,0c0,0.4,0,0.7,0,1.1c-1.3,0-2.7,0-4,0
		C172.9,27.6,172.9,28.7,172.9,29.9z"/>
</g>
</svg>
